HIERARCHY
ROOT Hips
{
	OFFSET 0.00000 0.00000 0.00000
	CHANNELS 6 Xposition Yposition Zposition Zrotation Yrotation Xrotation 
	JOINT LHipJoint
	{
		OFFSET 0 0 0
		CHANNELS 3 Zrotation Yrotation Xrotation
		JOINT LeftUpLeg
		{
			OFFSET 1.75344 -1.53157 0.77399
			CHANNELS 3 Zrotation Yrotation Xrotation
			JOINT LeftLeg
			{
				OFFSET 2.25415 -6.19323 0.00000
				CHANNELS 3 Zrotation Yrotation Xrotation
				JOINT LeftFoot
				{
					OFFSET 2.30342 -6.32861 0.00000
					CHANNELS 3 Zrotation Yrotation Xrotation
					JOINT LeftToeBase
					{
						OFFSET 0.10958 -0.30108 1.49206
						CHANNELS 3 Zrotation Yrotation Xrotation
						End Site
						{
							OFFSET 0.00000 -0.00000 0.77783
						}
					}
				}
			}
		}
	}
	JOINT RHipJoint
	{
		OFFSET 0 0 0
		CHANNELS 3 Zrotation Yrotation Xrotation
		JOINT RightUpLeg
		{
			OFFSET -1.81912 -1.53156 0.77399
			CHANNELS 3 Zrotation Yrotation Xrotation
			JOINT RightLeg
			{
				OFFSET -2.22882 -6.12365 0.00000
				CHANNELS 3 Zrotation Yrotation Xrotation
				JOINT RightFoot
				{
					OFFSET -2.21943 -6.09785 0.00000
					CHANNELS 3 Zrotation Yrotation Xrotation
					JOINT RightToeBase
					{
						OFFSET -0.18931 -0.52012 1.59379
						CHANNELS 3 Zrotation Yrotation Xrotation
						End Site
						{
							OFFSET -0.00000 -0.00000 0.84686
						}
					}
				}
			}
		}
	}
	JOINT LowerBack
	{
		OFFSET 0 0 0
		CHANNELS 3 Zrotation Yrotation Xrotation
		JOINT Spine
		{
			OFFSET -0.00200 1.66634 -0.14248
			CHANNELS 3 Zrotation Yrotation Xrotation
			JOINT Spine1
			{
				OFFSET -0.00875 1.64542 0.09514
				CHANNELS 3 Zrotation Yrotation Xrotation
				JOINT Neck
				{
					OFFSET 0 0 0
					CHANNELS 3 Zrotation Yrotation Xrotation
					JOINT Neck1
					{
						OFFSET 0.02257 1.59605 0.00839
						CHANNELS 3 Zrotation Yrotation Xrotation
						JOINT Head
						{
							OFFSET -0.10214 1.57530 -0.23335
							CHANNELS 3 Zrotation Yrotation Xrotation
							End Site
							{
								OFFSET -0.03588 1.60717 -0.08062
							}
						}
					}
				}
				JOINT LeftShoulder
				{
					OFFSET 0 0 0
					CHANNELS 3 Zrotation Yrotation Xrotation
					JOINT LeftArm
					{
						OFFSET 2.54983 1.10186 0.40078
						CHANNELS 3 Zrotation Yrotation Xrotation
						JOINT LeftForeArm
						{
							OFFSET 4.28840 -0.00000 0.00000
							CHANNELS 3 Zrotation Yrotation Xrotation
							JOINT LeftHand
							{
								OFFSET 3.06552 -0.00000 -0.00000
								CHANNELS 3 Zrotation Yrotation Xrotation
								JOINT LeftFingerBase
								{
									OFFSET 0 0 0
									CHANNELS 3 Zrotation Yrotation Xrotation
									JOINT LeftHandIndex1
									{
										OFFSET 0.75304 -0.00000 0.00000
										CHANNELS 3 Zrotation Yrotation Xrotation
										End Site
										{
											OFFSET 0.60712 -0.00000 0.00000
										}
									}
								}
								JOINT LThumb
								{
									OFFSET 0 0 0
									CHANNELS 3 Zrotation Yrotation Xrotation
									End Site
									{
										OFFSET 0.61639 -0.00000 0.61639
									}
								}
							}
						}
					}
				}
				JOINT RightShoulder
				{
					OFFSET 0 0 0
					CHANNELS 3 Zrotation Yrotation Xrotation
					JOINT RightArm
					{
						OFFSET -2.60909 1.35448 0.21802
						CHANNELS 3 Zrotation Yrotation Xrotation
						JOINT RightForeArm
						{
							OFFSET -4.52172 -0.00000 -0.00000
							CHANNELS 3 Zrotation Yrotation Xrotation
							JOINT RightHand
							{
								OFFSET -2.89140 -0.00000 0.00000
								CHANNELS 3 Zrotation Yrotation Xrotation
								JOINT RightFingerBase
								{
									OFFSET 0 0 0
									CHANNELS 3 Zrotation Yrotation Xrotation
									JOINT RightHandIndex1
									{
										OFFSET -0.68054 -0.00000 0.00000
										CHANNELS 3 Zrotation Yrotation Xrotation
										End Site
										{
											OFFSET -0.54867 -0.00000 0.00000
										}
									}
								}
								JOINT RThumb
								{
									OFFSET 0 0 0
									CHANNELS 3 Zrotation Yrotation Xrotation
									End Site
									{
										OFFSET -0.55705 -0.00000 0.55705
									}
								}
							}
						}
					}
				}
			}
		}
	}
}
MOTION
Frames: 7
Frame Time: .0083333
-0.5103 15.6333 -34.3751 158.4490 78.2528 -562.6380 0.0000 0.0000 0.0000 -15.5340 -13.2017 -13.9147 3.5080 11.4753 33.9000 2.0870 11.4042 -33.3383 0.0867 1.8989 5.2263 0.0000 0.0000 0.0000 28.3637 19.0204 8.3105 -1.1556 -6.8251 19.1982 1.1413 -27.2280 -31.5573 -1.8942 -8.6421 24.6820 2.3232 -1.4890 5.8212 3.4109 -1.2780 -6.4506 2.5190 -0.5660 -10.1240 -5.9399 -4.2866 -11.8864 7.8127 -6.2351 25.2773 3.0539 -2.3057 10.4799 0.0000 -0.0000 0.0000 -46.6232 -48.4299 26.0531 16.9071 -26.7352 -4.0455 -0.0000 -0.0000 27.3220 14.1782 -46.9242 -10.4556 -7.1250 0.0000 -0.0000 -12.0026 -16.9388 15.2564 0.0000 -0.0000 0.0000 31.4866 46.6226 16.0501 -17.1274 27.0254 -4.1451 0.0000 0.0000 18.0004 -6.4811 -36.2568 3.8436 7.1250 -0.0000 -0.0000 33.5657 -63.2848 -15.7864
-0.4316 15.6345 -34.3833 158.3010 78.4009 -562.9010 0.0000 0.0000 0.0000 -15.4096 -14.4271 -13.9462 3.3897 11.3007 33.3009 2.2958 10.9982 -34.2410 0.1713 2.6663 7.3511 0.0000 0.0000 0.0000 28.5625 18.7025 8.7582 -1.1312 -6.7550 18.9916 1.3342 -27.6320 -30.9633 -1.7464 -8.3165 23.6795 2.5955 -1.4258 5.6773 3.2063 -1.2024 -6.3298 2.1268 -0.5626 -9.9154 -5.9109 -4.2823 -11.7438 8.2046 -6.3284 24.9733 3.1737 -2.3110 10.3612 -0.0000 0.0000 0.0000 -46.1835 -48.6848 26.2401 16.9267 -26.7610 -4.0543 -0.0000 -0.0000 27.2407 14.1103 -46.9132 -10.4027 -7.1250 0.0000 -0.0000 -12.0316 -16.9152 15.2914 -0.0000 0.0000 0.0000 32.0424 46.7832 15.0290 -16.8770 26.6953 -4.0319 0.0000 0.0000 19.1228 -6.2007 -35.9742 3.6518 7.1250 -0.0000 -0.0000 33.5183 -62.9808 -15.5235
-0.3538 15.6370 -34.3928 158.4640 78.3965 -562.7950 0.0000 0.0000 0.0000 -15.2904 -15.9082 -14.0485 3.2786 11.1329 32.7295 2.4794 10.8973 -35.1809 0.2404 3.1551 8.7109 0.0000 0.0000 0.0000 28.5261 17.7631 8.8322 -1.1082 -6.6883 18.7950 1.5204 -27.8211 -29.9803 -1.3976 -7.4787 21.1417 2.7686 -1.5967 5.2212 3.1118 -1.4663 -6.0667 1.9399 -0.7122 -9.3551 -5.9290 -3.9850 -11.3795 8.7706 -6.0286 24.2728 3.4067 -2.1406 10.0296 -0.0000 -0.0000 0.0000 -45.4410 -48.7928 25.5121 16.8788 -26.6977 -4.0327 -0.0000 -0.0000 27.3437 13.9853 -46.9699 -10.3182 -7.1250 0.0000 -0.0000 -12.0992 -16.9457 15.3849 -0.0000 -0.0000 0.0000 31.8339 47.1855 15.5913 -17.0035 26.8624 -4.0889 0.0000 0.0000 18.2467 -6.3918 -36.2780 3.7922 7.1250 -0.0000 -0.0000 33.6822 -63.2787 -15.8429
-0.2822 15.6407 -34.4057 158.5980 78.5111 -562.6590 0.0000 0.0000 0.0000 -15.0877 -17.3487 -14.2428 3.1758 10.9743 32.1934 2.6313 10.5503 -35.7715 0.3924 4.0225 11.1400 0.0000 0.0000 0.0000 28.3677 16.6901 8.7251 -1.0830 -6.6143 18.5775 1.4406 -27.3155 -29.5750 -1.2500 -7.0886 19.9780 2.6657 -1.6730 5.1852 3.2806 -1.5635 -6.0561 2.1883 -0.7442 -9.3137 -5.8292 -4.0657 -11.8091 8.4313 -6.0879 24.5095 3.2600 -2.1851 10.1895 -0.0000 0.0000 0.0000 -45.7447 -48.7519 25.2110 16.8182 -26.6174 -4.0055 -0.0000 -0.0000 27.7344 13.5839 -47.0193 -10.0247 -7.1250 0.0000 -0.0000 -12.2914 -16.9173 15.6348 -0.0000 0.0000 0.0000 32.5904 48.0681 13.8099 -16.4230 26.0909 -3.8301 0.0000 0.0000 20.8370 -6.5304 -35.1424 3.7699 7.1250 -0.0000 -0.0000 32.2357 -62.3796 -14.4073
-0.2129 15.6452 -34.4193 158.1680 78.8673 -563.0490 0.0000 0.0000 0.0000 -14.8665 -18.4366 -14.5059 3.0753 10.8159 31.6616 2.6925 10.1946 -35.8744 0.5192 4.6179 12.8220 0.0000 0.0000 0.0000 28.3988 16.3453 8.8838 -1.0585 -6.5414 18.3635 1.4573 -27.2466 -29.3097 -1.1316 -6.7563 18.9955 2.7495 -1.6546 5.1682 3.2973 -1.5288 -6.0626 2.1542 -0.7319 -9.3138 -5.6929 -4.0951 -11.9572 8.2687 -6.1215 24.5282 3.1718 -2.2051 10.2180 0.0000 -0.0000 0.0000 -45.5620 -48.5799 25.0962 16.8692 -26.6851 -4.0284 -0.0000 -0.0000 27.6848 13.3374 -46.9478 -9.8285 -7.1250 0.0000 -0.0000 -12.3907 -16.8029 15.7500 0.0000 -0.0000 0.0000 32.1354 48.0080 14.5007 -16.4497 26.1266 -3.8419 0.0000 0.0000 19.8131 -6.6326 -35.1719 3.8320 7.1250 -0.0000 -0.0000 32.1648 -62.4306 -14.4106
-0.1414 15.6566 -34.4307 157.1690 79.3004 -564.0420 0.0000 0.0000 0.0000 -14.7471 -19.4304 -14.6915 2.9763 10.6567 31.1305 2.7133 10.3126 -36.0564 0.5552 4.7728 13.2617 0.0000 0.0000 0.0000 28.1536 15.4018 8.7238 -1.0393 -6.4837 18.1946 1.5376 -26.8667 -27.8861 -0.8990 -6.0428 16.9088 2.8044 -1.5728 5.1796 3.2219 -1.4227 -6.0498 2.0292 -0.6882 -9.3112 -5.6542 -4.0794 -11.9973 8.3842 -6.1364 24.5031 3.2038 -2.1955 10.2207 -0.0000 -0.0000 0.0000 -45.1013 -48.3804 25.3152 16.9847 -26.8376 -4.0804 -0.0000 -0.0000 27.0792 13.6710 -46.9087 -10.0723 -7.1250 0.0000 -0.0000 -12.2313 -16.8277 15.5428 -0.0000 -0.0000 0.0000 31.8146 47.6714 15.3308 -16.7100 26.4739 -3.9572 0.0000 0.0000 18.6392 -6.6559 -35.7460 3.8999 7.1250 -0.0000 -0.0000 32.7895 -62.9114 -15.0937
-0.0682 15.6683 -34.4436 156.3580 79.6661 -564.9450 0.0000 0.0000 0.0000 -14.6834 -20.3699 -14.8035 2.8825 10.5024 30.6195 2.6910 10.7642 -36.2191 0.4067 4.0941 11.3417 0.0000 0.0000 0.0000 28.4226 15.7630 9.4189 -1.0183 -6.4200 18.0080 1.5263 -26.9859 -28.2296 -1.0853 -6.6212 18.5979 2.8456 -1.4708 5.2495 3.1691 -1.2868 -6.0171 1.9333 -0.6282 -9.3204 -5.8100 -4.0462 -12.0122 8.6633 -6.1232 24.4903 3.3327 -2.1718 10.2326 0.0000 -0.0000 0.0000 -45.0497 -48.3633 25.7080 17.0398 -26.9102 -4.1053 -0.0000 -0.0000 26.6728 14.0245 -47.1053 -10.3699 -7.1250 0.0000 -0.0000 -12.1069 -17.0827 15.4138 0.0000 -0.0000 0.0000 31.8902 47.6412 14.9361 -16.5297 26.2336 -3.8772 0.0000 0.0000 19.0694 -6.6135 -35.6921 3.8699 7.1250 -0.0000 -0.0000 32.7713 -62.8564 -15.0421
